<?xml version="1.0" encoding="UTF-8"?>
<svg width="660px" height="660px" viewBox="0 0 660 660" version="1.1" xmlns="http://www.w3.org/2000/svg" xmlns:xlink="http://www.w3.org/1999/xlink">
    <!-- Generator: Sketch 52.3 (67297) - http://www.bohemiancoding.com/sketch -->
    <title>logo_660</title>
    <desc>Created with Sketch.</desc>
    <g id="logo_660" stroke="none" stroke-width="1" fill="none" fill-rule="evenodd">
        <g id="Group-2" transform="translate(180.000000, 80.000000)">
            <rect id="Rectangle" fill="#0B99EE" fill-rule="nonzero" opacity="0.696963356" x="0" y="0" width="100" height="500" rx="50"></rect>
            <rect id="Rectangle" fill="#EE0101" fill-rule="nonzero" opacity="0.696963356" x="0" y="0" width="300" height="100" rx="50"></rect>
            <rect id="Rectangle-Copy" fill="#F3C100" fill-rule="nonzero" opacity="0.696963356" x="0" y="200" width="300" height="100" rx="50"></rect>
            <g id="Group" transform="translate(198.000000, 393.000000)" fill="#FD9C4D">
                <path d="M54.128,22.4348005 C48.7573065,22.4348005 44.4241638,23.8489322 40.448,25.3347697 C36.4718362,26.8206072 34.4573954,28.654054 31.708,31.1387988 C28.9586046,33.6235437 27.3000053,37.1525397 26.236,41.2970817 C25.1719947,45.4416236 24.64,49.7273924 24.64,54.1545167 C24.64,58.3932528 25.1719947,62.5141844 26.236,66.5174351 C27.3000053,70.5206858 28.9973217,74.1235574 31.328,77.326158 C33.6586783,80.5287585 36.6986479,83.0955102 40.448,85.02649 C44.1973521,86.9574697 48.7573065,87.9229451 54.128,87.9229451 C61.4240365,87.9229451 67.1239795,85.8507052 71.228,81.7061633 C75.3320205,77.5616214 77.8399954,72.0984435 78.752,65.3164659 L78.752,44.0583009 C78.752,37.6783075 83.9240066,32.5063009 90.304,32.5063009 L90.304,32.5063009 C96.6839934,32.5063009 101.856,37.6783075 101.856,44.0583009 L101.856,65.3164659 C101.247997,71.6274729 99.677346,77.3261325 97.144,82.4126158 C94.610654,87.4990991 91.2666874,91.8319643 87.112,95.4113414 C82.9573126,98.9907185 78.0933612,101.722307 72.52,103.60619 C66.9466388,105.490073 60.8160334,106.432 54.128,106.432 C45.8186251,106.432 38.3453665,105.089754 31.708,102.405221 C25.0706335,99.720688 19.4720228,96.0236237 14.912,91.313917 C10.3519772,86.6042103 6.85601216,81.0703879 4.424,74.7122838 C1.99198784,68.3541797 0.776,61.5016592 0.776,54.1545167 C0.776,46.618986 1.99198784,39.6251764 4.424,33.1728782 C6.85601216,26.72058 10.3519772,21.0925648 14.912,16.288664 C19.4720228,11.4847631 25.0706335,7.71705426 31.708,4.98542436 C38.3453665,2.25379446 45.8186251,0.888 54.128,0.888 C60.1066966,0.888 66.5390444,3.24875782 66.5390444,12.0054989 C66.5390444,17.690403 61.734587,22.4348005 54.128,22.4348005 Z" id="C"></path>
                <circle id="Oval" fill-rule="nonzero" cx="90.5" cy="11.5" r="11.5"></circle>
            </g>
        </g>
    </g>
</svg>