<?xml version="1.0" encoding="UTF-8"?>

<svg width="120px" height="43px" viewBox="0 0 14 5" xmlns="http://www.w3.org/2000/svg"><g stroke="none" stroke-width="1" fill="none" fill-rule="evenodd"><g fill="#ff5a60"><path d="M13.158968,0.416666667 C12.6957969,0.416666667 12.3200166,0.736848522 12.3200166,1.13213476 C12.3213587,1.26668922 12.3644844,1.39706428 12.4427799,1.50326462 L12.3595506,1.86165748 L12.7449022,1.75405178 C12.8755749,1.81663194 13.0175552,1.84854956 13.1610487,1.84760286 C13.6246359,1.84760286 14,1.52742101 14,1.13213476 C14,0.736848522 13.6225551,0.416666667 13.158968,0.416666667 Z M13.5526425,1.26960653 C13.4807053,1.26960653 13.4223887,1.20805833 13.4223887,1.13213476 C13.4223887,1.0562112 13.4807053,0.994662993 13.5526425,0.994662993 C13.6245797,0.994662993 13.6828964,1.0562112 13.6828964,1.13213476 C13.6826679,1.20795824 13.6244849,1.26936544 13.5526425,1.26960653 Z M13.1606325,1.26960653 C13.0887499,1.26936415 13.0306422,1.20770903 13.0307951,1.13184289 C13.0309481,1.05597676 13.089304,0.994583235 13.161187,0.994663772 C13.2330699,0.994744309 13.2913022,1.05626846 13.2913025,1.13213476 C13.2913027,1.16867077 13.2775225,1.20370398 13.2530051,1.2294976 C13.2284876,1.25529122 13.1952501,1.26972326 13.1606325,1.26960653 L13.1606325,1.26960653 Z M12.7690387,1.26960653 C12.697268,1.26888048 12.6395784,1.2070145 12.6400359,1.13126476 C12.6404935,1.05551503 12.6989257,0.994430295 12.7706993,0.994669996 C12.8424729,0.994909696 12.9005377,1.05638349 12.900541,1.13213476 C12.9004311,1.16878756 12.8865012,1.20388648 12.8618276,1.22968014 C12.8371539,1.2554738 12.8037665,1.26984018 12.7690387,1.26960653 L12.7690387,1.26960653 Z M7.48106533,3.17839987 L6.20807324,3.17839987 C6.24000547,3.28319993 6.30158191,3.375165 6.38451935,3.44192403 C6.46832523,3.50268021 6.56838392,3.53346836 6.66999584,3.52976542 C6.74649975,3.53263423 6.82230415,3.51350588 6.88930504,3.47442535 C6.9513703,3.43366385 7.00251528,3.37681187 7.03786933,3.30928354 L7.45193508,3.30928354 C7.42965565,3.3786816 7.39962007,3.44503041 7.36246359,3.50692666 C7.31128876,3.58673373 7.24931944,3.65820386 7.17852684,3.71906361 C7.10867071,3.77998802 7.02961211,3.82809197 6.94465252,3.86136666 C6.84931299,3.89632203 6.74884842,3.9131265 6.64794007,3.91099704 C6.39189685,3.9199903 6.14704877,3.7999939 5.9883479,3.58774074 C5.85857307,3.41748435 5.78963585,3.20449817 5.79359134,2.98602724 C5.79348316,2.82124001 5.83330785,2.65916151 5.90928007,2.5151974 C5.98212923,2.37290368 6.09201069,2.25556169 6.22596754,2.17700806 C6.36117651,2.097099 6.51378805,2.05577224 6.6687474,2.05710457 C6.81765885,2.05649013 6.96418294,2.09658853 7.09404911,2.17349441 C7.22252093,2.24881318 7.32781255,2.36146382 7.39741989,2.49806833 C7.46895367,2.63559293 7.50618583,2.79005388 7.50561798,2.94693782 C7.50531471,3.02479741 7.49708322,3.10239709 7.48106533,3.17839987 L7.48106533,3.17839987 Z M7.10278818,2.84328498 C7.08669234,2.72716826 7.03249582,2.62069585 6.94964628,2.54242823 C6.79912945,2.4217473 6.59581697,2.40459471 6.42904702,2.49850754 C6.36317568,2.53958332 6.30753718,2.59664873 6.2667499,2.66496697 C6.2355688,2.72051274 6.21229324,2.78059428 6.19766958,2.84328498 L7.10278818,2.84328498 Z M4.73616313,3.857853 L4.07324178,2.12606006 L4.49937578,2.12606006 L4.89471494,3.27458619 L4.90345402,3.27458619 L5.27798585,2.12606006 L5.70952975,2.12606006 L5.04369538,3.857853 L4.73616313,3.857853 Z M3.93674573,2.12606006 L3.93674573,3.857853 L3.57594673,3.857853 L3.57594673,3.64308081 C3.50516844,3.72544662 3.42050127,3.79321048 3.32625884,3.84291997 C3.22537374,3.89255535 3.11502771,3.91704968 3.00374532,3.9145107 C2.86375627,3.91658949 2.72594154,3.87783278 2.60549313,3.80251293 C2.48235554,3.72374601 2.38169967,3.61129012 2.3141906,3.47706059 C2.23914857,3.32763605 2.20174779,3.16036597 2.20557636,2.99129772 C2.20350946,2.82517819 2.24099929,2.66117023 2.31460674,2.51431899 C2.38352771,2.37641755 2.4881604,2.26202643 2.61631294,2.18447458 C2.73779692,2.10896669 2.87607852,2.06880547 3.01706201,2.06808474 C3.10387801,2.06653643 3.19017652,2.08248673 3.27132751,2.11507988 C3.33948632,2.14305747 3.40341365,2.18137914 3.4610903,2.22883448 C3.50295457,2.26140225 3.53974149,2.30067226 3.57012068,2.34522432 L3.57594673,2.34522432 L3.57594673,2.12562085 L3.93674573,2.12606006 Z M3.56429463,2.98822327 C3.57012629,2.84340276 3.52048056,2.70220046 3.42655015,2.59645069 C3.31945881,2.48041288 3.16572617,2.42634557 3.0140903,2.45138979 C2.86245443,2.47643401 2.73172133,2.57748375 2.66333749,2.72250308 C2.62118231,2.80841958 2.59920327,2.90376825 2.59925094,3.00052107 C2.59569717,3.14232937 2.64709612,3.2795335 2.74157303,3.38043506 C2.83055157,3.48028435 2.95502435,3.53633569 3.08489388,3.53503591 C3.21723611,3.54015932 3.34472212,3.48207995 3.43196005,3.37692141 C3.52098516,3.2696344 3.56826047,3.13077557 3.56429463,2.98822327 L3.56429463,2.98822327 Z M1.38951311,3.857853 L1.38951311,2.12606006 L1.75031211,2.12606006 L1.75031211,2.27978248 L1.75613816,2.27978248 C1.79621734,2.21224765 1.85028489,2.15518399 1.91427382,2.11288385 C1.974948,2.08116219 2.04220802,2.06605854 2.10986267,2.06896316 L2.14190595,2.06896316 L2.14190595,2.4708375 C2.07094923,2.47241792 2.00124602,2.49088443 1.93799417,2.52485995 C1.88670162,2.55449903 1.84572872,2.60066635 1.82105701,2.65662204 C1.79245573,2.72884912 1.77910695,2.80678546 1.78193924,2.88500964 L1.78193924,3.857853 L1.38951311,3.857853 Z M0.405742821,3.857853 L0.405742821,1.94905966 L0,1.94905966 L0,1.54850294 L1.21806076,1.54850294 L1.21806076,1.94905966 L0.809821057,1.94905966 L0.809821057,3.857853 L0.405742821,3.857853 Z M7.73158552,3.857853 L7.73158552,1.54850294 L8.12401165,1.54850294 L8.12401165,3.857853 L7.73158552,3.857853 Z M8.4502705,3.857853 L8.4502705,1.54850294 L9.56429463,1.54850294 L9.56429463,1.94905966 L8.85684561,1.94905966 L8.85684561,2.51300137 L9.53391594,2.51300137 L9.53391594,2.91180126 L8.85559717,2.91180126 L8.85559717,3.857853 L8.4502705,3.857853 Z M9.83687058,3.857853 L9.83687058,1.54850294 L10.2297129,1.54850294 L10.2297129,3.857853 L9.83687058,3.857853 Z M12.1747815,2.12606006 L12.1747815,3.857853 L11.8139825,3.857853 L11.8139825,3.64308081 C11.7432305,3.72547691 11.6585576,3.79324537 11.5642946,3.84291997 C11.4632639,3.89256142 11.3527817,3.91705438 11.241365,3.9145107 C11.1013839,3.91652116 10.9635864,3.87776931 10.8431128,3.80251293 C10.7201705,3.72349106 10.6195716,3.61109882 10.5518102,3.47706059 C10.4757567,3.32792234 10.4373492,3.1606364 10.440283,2.99129772 C10.4380191,2.82515492 10.4755206,2.66109616 10.5493134,2.51431899 C10.617989,2.37623032 10.7226811,2.26177427 10.8510196,2.18447458 C10.9726999,2.10869907 11.1113184,2.06852345 11.2526009,2.06808474 C11.3394169,2.06653643 11.4257154,2.08248673 11.5068664,2.11507988 C11.5750252,2.14305747 11.6389526,2.18137914 11.6966292,2.22883448 C11.7384935,2.26140225 11.7752804,2.30067226 11.8056596,2.34522432 L11.8114856,2.34522432 L11.8114856,2.12562085 L12.1747815,2.12606006 Z M11.8023304,2.98822327 C11.8083522,2.84337118 11.75868,2.70209349 11.6645859,2.59645069 C11.5576,2.47945786 11.4033457,2.42476166 11.2511326,2.4498465 C11.0989195,2.47493134 10.9678076,2.57665614 10.8997087,2.72250308 C10.8574245,2.80838743 10.8353032,2.9037341 10.835206,3.00052107 C10.8316522,3.14232937 10.8830512,3.2795335 10.9775281,3.38043506 C11.0672167,3.4807824 11.1926515,3.53685913 11.3233458,3.53503591 C11.4556655,3.5400328 11.5831023,3.48197588 11.670412,3.37692141 C11.7591423,3.26947921 11.8062456,3.13068928 11.8023304,2.98822327 L11.8023304,2.98822327 Z M12.4515189,3.857853 L12.4515189,2.12606006 L12.8173117,2.12606006 L12.8173117,2.27670804 C12.878736,2.21074906 12.9507281,2.15677395 13.0299625,2.11727592 C13.1054528,2.08343998 13.1868256,2.06668252 13.2688306,2.06808474 C13.3783889,2.0670691 13.4863349,2.09596711 13.5821889,2.15197327 C13.6713061,2.20116017 13.7483773,2.27152624 13.8073242,2.35752211 C13.851841,2.42821121 13.8813669,2.50821393 13.8938826,2.59205862 C13.9080932,2.70162745 13.913938,2.81222435 13.9113608,2.92278144 L13.9113608,3.857853 L13.5172701,3.857853 L13.5172701,3.00315631 C13.5215552,2.88804676 13.5113397,2.77284628 13.4868914,2.6605749 C13.4701537,2.59614415 13.4329929,2.53971693 13.3816063,2.50070357 C13.3286063,2.463829 13.2661149,2.44511638 13.2026633,2.44712033 C13.1309457,2.44572867 13.0605811,2.46782367 13.0012484,2.51036613 C12.9446999,2.55044981 12.9022759,2.6091204 12.880566,2.67726476 C12.8524716,2.79369898 12.8408325,2.91387548 12.8460258,3.03390079 L12.8460258,3.857853 L12.4515189,3.857853 Z"></path></g></g></svg>
