<svg xmlns="http://www.w3.org/2000/svg" width="32" height="32" viewBox="0 0 32 32">
    <path fill="#929FAF" fill-rule="nonzero" d="M32 16c0-8.822-7.178-16-16-16S0 7.178 0 16s7.178 16 16 16c4.041 0 7.725-1.517 10.545-3.997.027-.017.043-.042.067-.063C29.91 25.007 32 20.747 32 16zM1.352 16c0-8.077 6.571-14.648 14.649-14.648 8.077 0 14.647 6.571 14.647 14.647 0 4.187-1.776 7.96-4.602 10.632-4.971-2.104-5.877-3.07-6.036-3.32v-.933c.84-.93 1.497-2.142 1.915-3.528a2.855 2.855 0 0 0 .977-1.781 2.835 2.835 0 0 0-.47-1.996v-2.786c0-3.752-2.316-5.904-6.356-5.904-3.98 0-6.358 2.207-6.358 5.904v2.785a2.855 2.855 0 0 0 .507 3.776c.418 1.387 1.075 2.598 1.916 3.529v.94c-.163.28-1.083 1.236-6.149 3.348-2.846-2.673-4.64-6.46-4.64-10.666zm5.8 11.644c5.122-2.187 6.08-3.247 6.312-3.992a.67.67 0 0 0 .03-.2v-1.343a.675.675 0 0 0-.194-.473c-.82-.839-1.455-2.003-1.836-3.37a.678.678 0 0 0-.261-.37 1.504 1.504 0 0 1-.284-2.175.678.678 0 0 0 .151-.426v-3.008c0-2.936 1.777-4.552 5.006-4.552 3.273 0 5.004 1.574 5.004 4.552v3.006c0 .156.054.306.151.426a1.5 1.5 0 0 1-.284 2.175.674.674 0 0 0-.26.37c-.382 1.366-1.017 2.53-1.836 3.37a.675.675 0 0 0-.193.472v1.343c0 .07.01.137.03.2.139.448.465 1.468 6.206 3.959a14.555 14.555 0 0 1-8.895 3.036 14.53 14.53 0 0 1-8.847-3z" opacity=".5"/>
</svg>
